<svg id="Layer_1" data-name="Layer 1" xmlns="http://www.w3.org/2000/svg" xmlns:xlink="http://www.w3.org/1999/xlink" viewBox="0 0 538.99 260.3"><defs><clipPath id="clip-path" transform="translate(1 106.51)"><rect x="1.33" width="536.37" height="284.1" style="fill:none"/></clipPath></defs><title>art</title><g style="clip-path:url(#clip-path)"><polygon points="73.71 166.59 13.72 106.6 74.14 46.18 133.26 107.03 73.71 166.59" style="fill:none;stroke:#c59b6d;stroke-miterlimit:10;stroke-width:2px"/><polygon points="115.01 148.81 30.79 148.81 30.79 63.98 116.23 63.98 115.01 148.81" style="fill:none;stroke:#c59b6d;stroke-miterlimit:10;stroke-width:2px"/><polygon points="73.5 122.41 62.17 117.72 57.48 106.39 62.17 95.07 73.5 90.37 84.83 95.07 89.52 106.39 84.83 117.72 73.5 122.41" style="fill:none;stroke:#c59b6d;stroke-miterlimit:10;stroke-width:2px"/><path d="M62.4-9.62a.87.87,0,0,1-.59-.24L30.72-40.66a.84.84,0,0,1-.25-.6v-19.1a.83.83,0,0,1,.26-.61.83.83,0,0,1,.62-.23c.29,0,7.2.41,15.91,6.34,8,5.43,19,16.75,26.3,39.86a.83.83,0,0,1-.48,1L62.72-9.69A.74.74,0,0,1,62.4-9.62Z" transform="translate(1 106.51)" style="fill:none;stroke:#c59b6d;stroke-miterlimit:10;stroke-width:2px"/><path d="M83.33-9.63A1,1,0,0,1,83-9.7L72.65-14a.85.85,0,0,1-.52-.77l-.21-43.76a.84.84,0,0,1,.25-.6L85.68-72.63a.79.79,0,0,1,.61-.25.85.85,0,0,1,.6.28c.2.21,4.8,5.38,6.77,15.74,1.8,9.47,1.59,25.27-9.58,46.77A.84.84,0,0,1,83.33-9.63Z" transform="translate(1 106.51)" style="fill:none;stroke:#c59b6d;stroke-miterlimit:10;stroke-width:2px"/><path d="M87.51,1a.83.83,0,0,1-.77-.52L82.45-9.84a.83.83,0,0,1,.18-.91l30.79-31.09a.84.84,0,0,1,.6-.25h19.11a.83.83,0,0,1,.6.26.82.82,0,0,1,.23.61c0,.29-.41,7.21-6.34,15.92-5.43,8-16.75,19-39.85,26.3A.78.78,0,0,1,87.51,1Z" transform="translate(1 106.51)" style="fill:none;stroke:#c59b6d;stroke-miterlimit:10;stroke-width:2px"/><path d="M119.67,21.94c-9.35,0-21.92-2.34-37.46-10.42a.84.84,0,0,1-.39-1.07L86.12.09a.83.83,0,0,1,.77-.52l43.76-.21h0a.82.82,0,0,1,.59.25l13.51,13.51a.79.79,0,0,1,.25.61.84.84,0,0,1-.27.6c-.22.2-5.39,4.8-15.74,6.77A49.89,49.89,0,0,1,119.67,21.94Z" transform="translate(1 106.51)" style="fill:none;stroke:#c59b6d;stroke-miterlimit:10;stroke-width:2px"/><path d="M113.69,61h0c-.29,0-7.2-.42-15.91-6.35-8-5.43-19-16.75-26.3-39.85a.85.85,0,0,1,.48-1L82.28,9.44a.83.83,0,0,1,.91.18l31.09,30.79a.86.86,0,0,1,.25.6V60.12a.83.83,0,0,1-.26.61A.86.86,0,0,1,113.69,61Z" transform="translate(1 106.51)" style="fill:none;stroke:#c59b6d;stroke-miterlimit:10;stroke-width:2px"/><path d="M58.73,72.63h0a.8.8,0,0,1-.6-.27c-.2-.22-4.8-5.39-6.77-15.74-1.8-9.47-1.59-25.28,9.58-46.78A.85.85,0,0,1,62,9.45l10.36,4.3a.85.85,0,0,1,.52.77l.21,43.76a.82.82,0,0,1-.25.59L59.32,72.39A.87.87,0,0,1,58.73,72.63Z" transform="translate(1 106.51)" style="fill:none;stroke:#c59b6d;stroke-miterlimit:10;stroke-width:2px"/><path d="M31,41.85H11.87A.84.84,0,0,1,11,41c0-.29.41-7.2,6.34-15.91,5.43-8,16.75-19,39.85-26.3a.83.83,0,0,1,1,.47L62.55,9.6a.83.83,0,0,1-.18.91L31.58,41.6A.84.84,0,0,1,31,41.85Z" transform="translate(1 106.51)" style="fill:none;stroke:#c59b6d;stroke-miterlimit:10;stroke-width:2px"/><path d="M14.35.39a.85.85,0,0,1-.59-.24L.25-13.37A.79.79,0,0,1,0-14a.86.86,0,0,1,.27-.6c.22-.19,5.39-4.8,15.74-6.76,9.47-1.8,25.28-1.6,46.78,9.58a.84.84,0,0,1,.39,1.06L58.88-.33a.82.82,0,0,1-.77.51L14.35.39Z" transform="translate(1 106.51)" style="fill:none;stroke:#c59b6d;stroke-miterlimit:10;stroke-width:2px"/><path d="M82.6-9.62a.74.74,0,0,1-.32-.07L71.92-14a.83.83,0,0,1-.48-1c7.3-23.11,18.33-34.43,26.3-39.86,8.71-5.93,15.62-6.33,15.91-6.34a.81.81,0,0,1,.62.23.83.83,0,0,1,.26.61v19.1a.84.84,0,0,1-.25.6L83.19-9.86A.87.87,0,0,1,82.6-9.62Z" transform="translate(1 106.51)" style="fill:none;stroke:#c59b6d;stroke-miterlimit:10;stroke-width:2px"/><path d="M113.69-41.26h0Z" transform="translate(1 106.51)" style="fill:none;stroke:#c59b6d;stroke-miterlimit:10;stroke-width:2px"/><path d="M61.67-9.63a.84.84,0,0,1-.75-.46c-11.17-21.5-11.38-37.3-9.58-46.77,2-10.36,6.57-15.53,6.77-15.74a.85.85,0,0,1,.6-.28.82.82,0,0,1,.61.25L72.83-59.12a.84.84,0,0,1,.25.6l-.21,43.76a.85.85,0,0,1-.52.77L62-9.7A1,1,0,0,1,61.67-9.63Z" transform="translate(1 106.51)" style="fill:none;stroke:#c59b6d;stroke-miterlimit:10;stroke-width:2px"/><path d="M57.49,1a.78.78,0,0,1-.26,0C34.13-6.3,22.81-17.33,17.38-25.3,11.45-34,11.05-40.93,11-41.22a.82.82,0,0,1,.23-.61.81.81,0,0,1,.6-.26H31a.84.84,0,0,1,.6.25L62.37-10.75a.83.83,0,0,1,.18.91L58.26.52A.83.83,0,0,1,57.49,1Z" transform="translate(1 106.51)" style="fill:none;stroke:#c59b6d;stroke-miterlimit:10;stroke-width:2px"/><path d="M25.33,21.94A49.89,49.89,0,0,1,16,21.1C5.66,19.13.49,14.53.27,14.33a.84.84,0,0,1-.27-.6.79.79,0,0,1,.25-.61L13.76-.39a.82.82,0,0,1,.59-.25h0l43.76.21a.83.83,0,0,1,.77.52l4.3,10.36a.84.84,0,0,1-.39,1.07C47.25,19.6,34.68,21.94,25.33,21.94Z" transform="translate(1 106.51)" style="fill:none;stroke:#c59b6d;stroke-miterlimit:10;stroke-width:2px"/><path d="M31.31,61a.86.86,0,0,1-.58-.23.83.83,0,0,1-.26-.61V41a.86.86,0,0,1,.25-.6L61.81,9.62a.83.83,0,0,1,.91-.18l10.36,4.29a.85.85,0,0,1,.48,1c-7.3,23.1-18.33,34.42-26.3,39.85C38.55,60.54,31.64,60.94,31.35,61Z" transform="translate(1 106.51)" style="fill:none;stroke:#c59b6d;stroke-miterlimit:10;stroke-width:2px"/><path d="M86.27,72.63a.87.87,0,0,1-.59-.24L72.17,58.87a.82.82,0,0,1-.25-.59l.21-43.76a.85.85,0,0,1,.52-.77L83,9.45a.85.85,0,0,1,1.07.39c11.17,21.5,11.38,37.31,9.58,46.78-2,10.35-6.57,15.52-6.77,15.74a.8.8,0,0,1-.6.27Z" transform="translate(1 106.51)" style="fill:none;stroke:#c59b6d;stroke-miterlimit:10;stroke-width:2px"/><path d="M133.13,41.85H114a.84.84,0,0,1-.6-.25L82.63,10.51a.83.83,0,0,1-.18-.91L86.74-.77a.84.84,0,0,1,1-.47c23.1,7.3,34.42,18.33,39.85,26.3C133.55,33.77,134,40.68,134,41a.84.84,0,0,1-.23.62A.87.87,0,0,1,133.13,41.85Z" transform="translate(1 106.51)" style="fill:none;stroke:#c59b6d;stroke-miterlimit:10;stroke-width:2px"/><path d="M130.65.39h0L86.89.18a.82.82,0,0,1-.77-.51L81.82-10.7a.84.84,0,0,1,.39-1.06c21.5-11.18,37.31-11.38,46.78-9.58,10.35,2,15.52,6.57,15.74,6.76a.86.86,0,0,1,.27.6.79.79,0,0,1-.25.61L131.24.15A.85.85,0,0,1,130.65.39Z" transform="translate(1 106.51)" style="fill:none;stroke:#c59b6d;stroke-miterlimit:10;stroke-width:2px"/><polygon points="465.7 166.59 405.71 106.6 466.13 46.18 525.25 107.03 465.7 166.59" style="fill:none;stroke:#c59b6d;stroke-miterlimit:10;stroke-width:2px"/><polygon points="507 148.81 422.78 148.81 422.78 63.98 508.22 63.98 507 148.81" style="fill:none;stroke:#c59b6d;stroke-miterlimit:10;stroke-width:2px"/><polygon points="465.49 122.41 454.17 117.72 449.47 106.39 454.17 95.07 465.49 90.37 476.81 95.07 481.51 106.39 476.81 117.72 465.49 122.41" style="fill:none;stroke:#c59b6d;stroke-miterlimit:10;stroke-width:2px"/><path d="M454.39-9.62a.87.87,0,0,1-.59-.24l-31.09-30.8a.84.84,0,0,1-.25-.6v-19.1a.83.83,0,0,1,.26-.61.83.83,0,0,1,.62-.23c.29,0,7.2.41,15.91,6.34,8,5.43,19,16.75,26.3,39.86a.83.83,0,0,1-.48,1L454.71-9.69A.74.74,0,0,1,454.39-9.62Z" transform="translate(1 106.51)" style="fill:none;stroke:#c59b6d;stroke-miterlimit:10;stroke-width:2px"/><path d="M475.32-9.63A1,1,0,0,1,475-9.7L464.64-14a.84.84,0,0,1-.52-.77l-.21-43.76a.84.84,0,0,1,.25-.6l13.51-13.51a.79.79,0,0,1,.61-.25.85.85,0,0,1,.6.28c.2.21,4.8,5.38,6.77,15.74,1.8,9.47,1.59,25.27-9.58,46.77A.84.84,0,0,1,475.32-9.63Z" transform="translate(1 106.51)" style="fill:none;stroke:#c59b6d;stroke-miterlimit:10;stroke-width:2px"/><path d="M479.5,1a.83.83,0,0,1-.77-.52L474.44-9.84a.83.83,0,0,1,.18-.91l30.79-31.09a.84.84,0,0,1,.6-.25h19.11a.83.83,0,0,1,.6.26.82.82,0,0,1,.23.61c0,.29-.41,7.21-6.34,15.92-5.43,8-16.75,19-39.85,26.3A.78.78,0,0,1,479.5,1Z" transform="translate(1 106.51)" style="fill:none;stroke:#c59b6d;stroke-miterlimit:10;stroke-width:2px"/><path d="M511.66,21.94c-9.35,0-21.92-2.34-37.46-10.42a.84.84,0,0,1-.39-1.07L478.11.09a.83.83,0,0,1,.77-.52l43.76-.21h0a.82.82,0,0,1,.59.25l13.51,13.51a.79.79,0,0,1,.25.61.84.84,0,0,1-.27.6c-.22.2-5.39,4.8-15.74,6.77A49.89,49.89,0,0,1,511.66,21.94Z" transform="translate(1 106.51)" style="fill:none;stroke:#c59b6d;stroke-miterlimit:10;stroke-width:2px"/><path d="M505.68,61h0c-.29,0-7.2-.42-15.91-6.35-8-5.43-19-16.75-26.3-39.85a.85.85,0,0,1,.48-1l10.36-4.29a.83.83,0,0,1,.91.18l31.09,30.79a.86.86,0,0,1,.25.6V60.12a.83.83,0,0,1-.26.61A.86.86,0,0,1,505.68,61Z" transform="translate(1 106.51)" style="fill:none;stroke:#c59b6d;stroke-miterlimit:10;stroke-width:2px"/><path d="M450.72,72.63h0a.8.8,0,0,1-.6-.27c-.2-.22-4.8-5.39-6.77-15.74-1.8-9.47-1.59-25.28,9.58-46.78A.85.85,0,0,1,454,9.45l10.36,4.3a.85.85,0,0,1,.52.77l.21,43.76a.82.82,0,0,1-.25.59L451.31,72.39A.87.87,0,0,1,450.72,72.63Z" transform="translate(1 106.51)" style="fill:none;stroke:#c59b6d;stroke-miterlimit:10;stroke-width:2px"/><path d="M423,41.85H403.86A.84.84,0,0,1,403,41c0-.29.41-7.2,6.34-15.91,5.43-8,16.75-19,39.85-26.3a.83.83,0,0,1,1,.47L454.54,9.6a.83.83,0,0,1-.18.91L423.57,41.6A.84.84,0,0,1,423,41.85Z" transform="translate(1 106.51)" style="fill:none;stroke:#c59b6d;stroke-miterlimit:10;stroke-width:2px"/><path d="M406.34.39a.85.85,0,0,1-.59-.24L392.24-13.37A.79.79,0,0,1,392-14a.86.86,0,0,1,.27-.6c.22-.19,5.39-4.8,15.74-6.76,9.47-1.8,25.28-1.6,46.78,9.58a.84.84,0,0,1,.39,1.06L450.87-.33a.82.82,0,0,1-.77.51L406.34.39Z" transform="translate(1 106.51)" style="fill:none;stroke:#c59b6d;stroke-miterlimit:10;stroke-width:2px"/><path d="M474.59-9.62a.74.74,0,0,1-.32-.07L463.91-14a.83.83,0,0,1-.48-1c7.3-23.11,18.33-34.43,26.3-39.86,8.71-5.93,15.62-6.33,15.91-6.34a.81.81,0,0,1,.62.23.83.83,0,0,1,.26.61v19.1a.84.84,0,0,1-.25.6L475.18-9.86A.87.87,0,0,1,474.59-9.62Z" transform="translate(1 106.51)" style="fill:none;stroke:#c59b6d;stroke-miterlimit:10;stroke-width:2px"/><path d="M505.68-41.26h0Z" transform="translate(1 106.51)" style="fill:none;stroke:#c59b6d;stroke-miterlimit:10;stroke-width:2px"/><path d="M453.66-9.63a.84.84,0,0,1-.75-.46c-11.17-21.5-11.38-37.3-9.58-46.77,2-10.36,6.57-15.53,6.77-15.74a.85.85,0,0,1,.6-.28.82.82,0,0,1,.61.25l13.51,13.51a.84.84,0,0,1,.25.6l-.21,43.76a.85.85,0,0,1-.52.77L454-9.7A1,1,0,0,1,453.66-9.63Z" transform="translate(1 106.51)" style="fill:none;stroke:#c59b6d;stroke-miterlimit:10;stroke-width:2px"/><path d="M449.48,1a.78.78,0,0,1-.26,0c-23.1-7.3-34.42-18.33-39.85-26.3C403.44-34,403-40.93,403-41.22a.82.82,0,0,1,.23-.61.81.81,0,0,1,.6-.26H423a.84.84,0,0,1,.6.25l30.79,31.09a.83.83,0,0,1,.18.91L450.25.52A.83.83,0,0,1,449.48,1Z" transform="translate(1 106.51)" style="fill:none;stroke:#c59b6d;stroke-miterlimit:10;stroke-width:2px"/><path d="M417.32,21.94A49.89,49.89,0,0,1,408,21.1c-10.35-2-15.52-6.57-15.74-6.77a.84.84,0,0,1-.27-.6.79.79,0,0,1,.25-.61L405.75-.39a.82.82,0,0,1,.59-.25h0l43.76.21a.83.83,0,0,1,.77.52l4.3,10.36a.84.84,0,0,1-.39,1.07C439.24,19.6,426.67,21.94,417.32,21.94Z" transform="translate(1 106.51)" style="fill:none;stroke:#c59b6d;stroke-miterlimit:10;stroke-width:2px"/><path d="M423.3,61a.86.86,0,0,1-.58-.23.83.83,0,0,1-.26-.61V41a.86.86,0,0,1,.25-.6L453.8,9.62a.83.83,0,0,1,.91-.18l10.36,4.29a.85.85,0,0,1,.48,1c-7.3,23.1-18.33,34.42-26.3,39.85-8.71,5.93-15.62,6.33-15.91,6.35Z" transform="translate(1 106.51)" style="fill:none;stroke:#c59b6d;stroke-miterlimit:10;stroke-width:2px"/><path d="M478.26,72.63a.87.87,0,0,1-.59-.24L464.16,58.87a.82.82,0,0,1-.25-.59l.21-43.76a.84.84,0,0,1,.52-.77L475,9.45a.85.85,0,0,1,1.07.39c11.17,21.5,11.38,37.31,9.58,46.78-2,10.35-6.57,15.52-6.77,15.74a.8.8,0,0,1-.6.27Z" transform="translate(1 106.51)" style="fill:none;stroke:#c59b6d;stroke-miterlimit:10;stroke-width:2px"/><path d="M525.12,41.85H506a.84.84,0,0,1-.6-.25L474.62,10.51a.83.83,0,0,1-.18-.91L478.73-.77a.84.84,0,0,1,1-.47c23.1,7.3,34.42,18.33,39.85,26.3,5.93,8.71,6.33,15.62,6.34,15.91a.84.84,0,0,1-.23.62A.87.87,0,0,1,525.12,41.85Z" transform="translate(1 106.51)" style="fill:none;stroke:#c59b6d;stroke-miterlimit:10;stroke-width:2px"/><path d="M522.64.39h0L478.88.18a.82.82,0,0,1-.77-.51l-4.3-10.37a.84.84,0,0,1,.39-1.06c21.5-11.18,37.31-11.38,46.78-9.58,10.35,2,15.52,6.57,15.74,6.76a.86.86,0,0,1,.27.6.79.79,0,0,1-.25.61L523.23.15A.85.85,0,0,1,522.64.39Z" transform="translate(1 106.51)" style="fill:none;stroke:#c59b6d;stroke-miterlimit:10;stroke-width:2px"/><polygon points="269.87 236.6 163.79 130.53 270.63 23.69 375.18 131.29 269.87 236.6" style="fill:none;stroke:#c59b6d;stroke-miterlimit:10;stroke-width:3px"/><polygon points="342.9 205.16 193.97 205.16 193.97 55.15 345.06 55.15 342.9 205.16" style="fill:none;stroke:#c59b6d;stroke-miterlimit:10;stroke-width:3px"/><polygon points="269.5 158.48 249.47 150.18 241.17 130.15 249.47 110.13 269.5 101.83 289.52 110.13 297.82 130.15 289.52 150.18 269.5 158.48" style="fill:none;stroke:#c59b6d;stroke-miterlimit:10;stroke-width:3px"/><path d="M250.63,6.84a1.47,1.47,0,0,1-1-.42L194.61-48a1.49,1.49,0,0,1-.44-1.05V-82.88a1.51,1.51,0,0,1,.46-1.08,1.51,1.51,0,0,1,1.09-.4c.51,0,12.74.72,28.14,11.21,14.09,9.6,33.6,29.62,46.51,70.47a1.49,1.49,0,0,1-.85,1.82L251.2,6.73A1.44,1.44,0,0,1,250.63,6.84Z" transform="translate(1 106.51)" style="fill:none;stroke:#c59b6d;stroke-miterlimit:10;stroke-width:3px"/><path d="M287.65,6.82a1.55,1.55,0,0,1-.56-.11L268.76-.88a1.48,1.48,0,0,1-.91-1.36l-.37-77.39a1.44,1.44,0,0,1,.43-1.05l23.89-23.9a1.4,1.4,0,0,1,1.09-.43,1.51,1.51,0,0,1,1.06.49c.34.38,8.49,9.52,12,27.82C309.09-59.94,308.73-32,289,6A1.48,1.48,0,0,1,287.65,6.82Z" transform="translate(1 106.51)" style="fill:none;stroke:#c59b6d;stroke-miterlimit:10;stroke-width:3px"/><path d="M295,25.69a1.46,1.46,0,0,1-1.36-.91l-7.6-18.33a1.5,1.5,0,0,1,.32-1.61l54.46-55a1.47,1.47,0,0,1,1.05-.43H375.7a1.49,1.49,0,0,1,1.07.45,1.5,1.5,0,0,1,.41,1.1c0,.51-.73,12.73-11.22,28.13-9.6,14.1-29.61,33.61-70.47,46.51A1.41,1.41,0,0,1,295,25.69Z" transform="translate(1 106.51)" style="fill:none;stroke:#c59b6d;stroke-miterlimit:10;stroke-width:3px"/><path d="M351.9,62.66c-16.53,0-38.75-4.15-66.24-18.44a1.48,1.48,0,0,1-.68-1.88L292.57,24a1.47,1.47,0,0,1,1.36-.92l77.39-.37h0a1.48,1.48,0,0,1,1.05.44l23.89,23.89a1.46,1.46,0,0,1-.05,2.14c-.38.35-9.52,8.49-27.83,12A88.38,88.38,0,0,1,351.9,62.66Z" transform="translate(1 106.51)" style="fill:none;stroke:#c59b6d;stroke-miterlimit:10;stroke-width:3px"/><path d="M341.34,131.65h-.07c-.51,0-12.74-.73-28.14-11.22C299,110.83,279.53,90.81,266.62,50a1.49,1.49,0,0,1,.85-1.82l18.32-7.59a1.48,1.48,0,0,1,1.61.32l55,54.45a1.5,1.5,0,0,1,.44,1.06v33.79a1.5,1.5,0,0,1-.46,1.07A1.48,1.48,0,0,1,341.34,131.65Z" transform="translate(1 106.51)" style="fill:none;stroke:#c59b6d;stroke-miterlimit:10;stroke-width:3px"/><path d="M244.14,152.29h0a1.54,1.54,0,0,1-1.06-.48c-.34-.38-8.49-9.52-12-27.83-3.18-16.75-2.82-44.7,16.94-82.72a1.49,1.49,0,0,1,1.88-.69l18.33,7.59a1.48,1.48,0,0,1,.91,1.37l.37,77.38a1.43,1.43,0,0,1-.43,1l-23.89,23.9A1.48,1.48,0,0,1,244.14,152.29Z" transform="translate(1 106.51)" style="fill:none;stroke:#c59b6d;stroke-miterlimit:10;stroke-width:3px"/><path d="M195.08,97.86H161.29a1.49,1.49,0,0,1-1.48-1.56c0-.51.73-12.73,11.22-28.13,9.6-14.09,29.61-33.6,70.47-46.51a1.47,1.47,0,0,1,1.81.84l7.6,18.33a1.5,1.5,0,0,1-.32,1.61l-54.46,55A1.48,1.48,0,0,1,195.08,97.86Z" transform="translate(1 106.51)" style="fill:none;stroke:#c59b6d;stroke-miterlimit:10;stroke-width:3px"/><path d="M165.67,24.55a1.51,1.51,0,0,1-1-.43L140.73.22a1.45,1.45,0,0,1-.44-1.08,1.49,1.49,0,0,1,.49-1.06c.38-.35,9.52-8.49,27.83-12,16.75-3.18,44.7-2.82,82.72,16.94A1.48,1.48,0,0,1,252,4.94l-7.59,18.33a1.48,1.48,0,0,1-1.36.91l-77.39.37Z" transform="translate(1 106.51)" style="fill:none;stroke:#c59b6d;stroke-miterlimit:10;stroke-width:3px"/><path d="M286.36,6.84a1.44,1.44,0,0,1-.57-.11L267.47-.86a1.49,1.49,0,0,1-.85-1.82C279.53-43.53,299-63.55,313.13-73.15c15.4-10.49,27.63-11.19,28.14-11.21a1.49,1.49,0,0,1,1.09.4,1.51,1.51,0,0,1,.46,1.08v33.79a1.49,1.49,0,0,1-.44,1.05l-55,54.46A1.51,1.51,0,0,1,286.36,6.84Z" transform="translate(1 106.51)" style="fill:none;stroke:#c59b6d;stroke-miterlimit:10;stroke-width:3px"/><path d="M341.34-49.09h0Z" transform="translate(1 106.51)" style="fill:none;stroke:#c59b6d;stroke-miterlimit:10;stroke-width:3px"/><path d="M249.34,6.82A1.48,1.48,0,0,1,248,6c-19.76-38-20.12-66-16.94-82.72,3.47-18.3,11.62-27.44,12-27.82a1.51,1.51,0,0,1,1.06-.49,1.46,1.46,0,0,1,1.09.43l23.89,23.9a1.44,1.44,0,0,1,.43,1.05l-.37,77.39a1.48,1.48,0,0,1-.91,1.36L249.9,6.71A1.55,1.55,0,0,1,249.34,6.82Z" transform="translate(1 106.51)" style="fill:none;stroke:#c59b6d;stroke-miterlimit:10;stroke-width:3px"/><path d="M242,25.69a1.41,1.41,0,0,1-.45-.07C200.64,12.72,180.63-6.79,171-20.89,160.54-36.29,159.84-48.51,159.81-49a1.5,1.5,0,0,1,.41-1.1,1.49,1.49,0,0,1,1.07-.45h33.79a1.47,1.47,0,0,1,1,.43l54.46,55a1.5,1.5,0,0,1,.32,1.61l-7.6,18.33A1.46,1.46,0,0,1,242,25.69Z" transform="translate(1 106.51)" style="fill:none;stroke:#c59b6d;stroke-miterlimit:10;stroke-width:3px"/><path d="M185.09,62.66a88.38,88.38,0,0,1-16.48-1.49c-18.31-3.48-27.45-11.62-27.83-12a1.46,1.46,0,0,1-.05-2.14l23.89-23.89a1.48,1.48,0,0,1,1-.44h0l77.39.37a1.47,1.47,0,0,1,1.36.92L252,42.34a1.48,1.48,0,0,1-.68,1.88C223.84,58.51,201.62,62.66,185.09,62.66Z" transform="translate(1 106.51)" style="fill:none;stroke:#c59b6d;stroke-miterlimit:10;stroke-width:3px"/><path d="M195.65,131.65a1.48,1.48,0,0,1-1-.41,1.5,1.5,0,0,1-.46-1.07V96.38a1.5,1.5,0,0,1,.44-1.06l55-54.45a1.48,1.48,0,0,1,1.61-.32l18.32,7.59a1.49,1.49,0,0,1,.85,1.82c-12.91,40.85-32.42,60.87-46.51,70.47-15.4,10.49-27.63,11.19-28.14,11.22Z" transform="translate(1 106.51)" style="fill:none;stroke:#c59b6d;stroke-miterlimit:10;stroke-width:3px"/><path d="M292.85,152.29a1.48,1.48,0,0,1-1.05-.43L267.91,128a1.43,1.43,0,0,1-.43-1l.37-77.38a1.48,1.48,0,0,1,.91-1.37l18.33-7.59a1.49,1.49,0,0,1,1.88.69c19.76,38,20.12,66,16.94,82.72-3.47,18.31-11.62,27.45-12,27.83a1.54,1.54,0,0,1-1.06.48Z" transform="translate(1 106.51)" style="fill:none;stroke:#c59b6d;stroke-miterlimit:10;stroke-width:3px"/><path d="M375.7,97.86H341.91a1.48,1.48,0,0,1-1.05-.44l-54.46-55a1.5,1.5,0,0,1-.32-1.61l7.6-18.33a1.47,1.47,0,0,1,1.81-.84C336.35,34.57,356.36,54.08,366,68.17c10.49,15.4,11.19,27.62,11.22,28.13a1.49,1.49,0,0,1-1.48,1.56Z" transform="translate(1 106.51)" style="fill:none;stroke:#c59b6d;stroke-miterlimit:10;stroke-width:3px"/><path d="M371.32,24.55h0l-77.39-.37a1.48,1.48,0,0,1-1.36-.91L285,4.94a1.48,1.48,0,0,1,.68-1.88c38-19.76,66-20.12,82.72-16.94,18.31,3.47,27.45,11.61,27.83,12a1.49,1.49,0,0,1,.49,1.06,1.45,1.45,0,0,1-.44,1.08l-23.89,23.9A1.51,1.51,0,0,1,371.32,24.55Z" transform="translate(1 106.51)" style="fill:none;stroke:#c59b6d;stroke-miterlimit:10;stroke-width:3px"/></g></svg>