<svg id="Layer_1" data-name="Layer 1" xmlns="http://www.w3.org/2000/svg" viewBox="0 0 184.05 262.36"><title>Untitled-1</title><path d="M37.52,190a8.39,8.39,0,0,1-1.39,5.83,4.61,4.61,0,0,1-3.6,2.22c-2.6,0-3.89-1.39-3.89-4.16a17.89,17.89,0,0,1,7.77-14.43q-2.49,3.6-3.33,5a13.12,13.12,0,0,0-1.66,6.38c-.19,1.85.55,2.78,2.22,2.78a3.06,3.06,0,0,0,2.22-1.39,4,4,0,0,0,.55-3.61Z" transform="translate(-27.64 -24.1)" style="fill:none;stroke:#aaa;stroke-width:2px"/><path d="M40.85,115.07q.55,4.71-1.39,7.49T35,125.06c-3.7,0-5.45-1.67-5.27-5q.27-10.26,10-17.76l-3.88,6.11a17.74,17.74,0,0,0-2.5,7.49q0,3.88,2.77,3.88c.93.19,1.85-.32,2.78-1.52A6.27,6.27,0,0,0,40,113.68Z" transform="translate(-27.64 -24.1)" style="fill:none;stroke:#aaa;stroke-width:2px"/><path d="M205.69,124.5l-3.89,8.33q-4.44,4.15-15.82,8.6-13.59,5.55-23,5-4.15,0-7.49-9.57T148,127.28q0,6.1-4.72,13-5.55,7.49-11.93,7.21a11.42,11.42,0,0,1-9.16-3.88q-3.33-3.89-3-7.22-13.89,15-22.76,14.71-9.15-.27-12.76-8.6-1.66-2.78-3.47-5.55t-3.75-2.78q-9.44-.56-16.65,14.71-3.33,8.06-6.66,15.82-4.16,9.15-8.6,9.16-4.17-.28-8.05-5.55a27.34,27.34,0,0,1-5-11.94q-1.4-10.26,0-26.64h2.49q-.82,17.49,0,20.82,3.33,15.25,9.72,15.26,3.87.27,8.32-8.33,3.6-8.88,7.49-17.76,7.22-14.7,17.49-14.15,2.76,0,8.32,9.71,2.77,6.94,11.93,7.22,7.21.27,14.16-6.66,8-8.06,11.37-9.16-.55,11.66,8,11.93a14.3,14.3,0,0,0,12.49-5.82q4.71-6.11,3.61-15l-5.55-44.95q-.28-2.22-.56-9.44l1.11-8.6q3.33,1.11,4.72,14.71l4.72,45q2.2,23,11.93,23.31-6.39-8.59-6.11-21.92a16,16,0,0,1,6.39-12.77,17.12,17.12,0,0,1,11.65-3.88A28.33,28.33,0,0,1,196.25,109v1.11q-3.62-2.22-13-4.72a42.44,42.44,0,0,0-15,2.5c-4.62,1.3-7.4,2.41-8.32,3.33q0,3.61,4.44,12.21,5.82,11.1,13.32,11.38,5.26.27,14-3.05A59.57,59.57,0,0,0,205.69,124.5Z" transform="translate(-27.64 -24.1)" style="fill:none;stroke:#aaa;stroke-width:2px"/><path d="M55.28,237.44q.55,3.88-1.11,6.11t-3.33,2.22q-4.16-.28-4.16-4.44.27-8.61,8-14.15c-2,2.95-3.15,4.62-3.33,5A10.88,10.88,0,0,0,49.45,238q-.27,3,2.5,3.33A2.67,2.67,0,0,0,54,239.94a5,5,0,0,0,.7-3.61Z" transform="translate(-27.64 -24.1)" style="fill:none;stroke:#aaa;stroke-width:2px"/><path d="M57.22,77.6a7.91,7.91,0,0,1-1.11,6c-1.11,1.57-2.31,2.27-3.6,2.08q-4.17,0-4.17-4.16a17.94,17.94,0,0,1,8-14.15q-1.66,2.49-3,4.71a11.71,11.71,0,0,0-1.94,6.39c-.19,2,.46,3.14,1.94,3.33a3.34,3.34,0,0,0,2.36-1.53,4.76,4.76,0,0,0,1-3.75Z" transform="translate(-27.64 -24.1)" style="fill:none;stroke:#aaa;stroke-width:2px"/><path d="M122.16,106.19q-.55,13.59-11.66,13.32-7.77-.29-12.76-14.16Q96.35,122,81.37,121.45q-11.94-.27-10.83-18.59,0-.56,1.11-6.66a34,34,0,0,0,.84-9.44,36.48,36.48,0,0,0-5.28,13.32Q66.1,105.63,65,111.46q-2.77,8.33-7.49,8.05c-2.22,0-4.07-2-5.55-5.83A31.86,31.86,0,0,1,50,100.91c.18-6.66.55-10.72,1.11-12.21l2.22.28a53.76,53.76,0,0,0-.83,9.44q0,13.59,6.38,13.87,1.94.28,6.66-14.71Q70.26,81.5,78,77.88l-1.11,6.38q-1.11,6.94-2.22,16.93-.28,11.39,8.32,11.66,4.71.27,9-3.75a12.65,12.65,0,0,0,4.3-9.57L93.58,78.44l3-6.94c1.48,3.88,2.22,6.66,2.22,8.32q.56,7.5,2.77,21.09,3.33,10.56,10.55,10.83a8.23,8.23,0,0,0,7.77-3.89q-3.61-8.32-5-11.65-3.6-9.44-3.88-15l-1.39-3.61,2.22-7.21,7.49,11.93-.27,2.5a8.49,8.49,0,0,1-3.61-3.61l-.28,1.67Q122.15,99.8,122.16,106.19Z" transform="translate(-27.64 -24.1)" style="fill:none;stroke:#aaa;stroke-width:2px"/><path d="M77.76,186.94V190a2.28,2.28,0,0,1-1.67.56,5.46,5.46,0,0,0-1.38-2q-2.23,0-4.72,11.66H68.88c-.37-4.63-1.48-7-3.33-7.22q-4.44,0-4.16-3.6a1.72,1.72,0,0,1,1.94-1.95q3.89,0,6.66,8.61a20.91,20.91,0,0,1,1.53-6.94c1-2.78,2.17-4.16,3.46-4.16A10.65,10.65,0,0,1,77.76,186.94Z" transform="translate(-27.64 -24.1)" style="fill:none;stroke:#aaa;stroke-width:2px"/><path d="M71.1,168.35c.37,2.58,0,4.62-1.11,6.1s-2.32,2.12-3.61,1.94q-3.88,0-3.88-3.88.27-8.61,7.77-14.43c-2,2.77-3.24,4.44-3.61,5a15.6,15.6,0,0,0-1.94,6.11c0,2,.92,3,2.77,3,.74.18,1.43-.23,2.08-1.25a5.52,5.52,0,0,0,.7-3.74Z" transform="translate(-27.64 -24.1)" style="fill:none;stroke:#aaa;stroke-width:2px"/><path d="M96.07,61.79c-.18,3.88-1.48,5.73-3.88,5.55-2,0-3.33-1.11-3.89-3.33-.37,2.77-1.94,4.07-4.71,3.88q-3.33,0-3.06-6.1V58.73L78.59,61V59.29l3.89-5.83H83q-.56,3.33-.83,6.11c0,3.14.64,4.71,1.94,4.71,2.4.19,3.61-.92,3.61-3.33a36.81,36.81,0,0,1-.83-6.1l1.94-2.22q0,13,3.33,11.1c1.11.18,1.66-.46,1.66-1.94a25.17,25.17,0,0,0-1.38-6.94l1.94-2.78A42.12,42.12,0,0,1,96.07,61.79Z" transform="translate(-27.64 -24.1)" style="fill:none;stroke:#aaa;stroke-width:2px"/><polygon points="64.27 142.3 59.27 148.97 52.06 142.86 57.33 136.75 64.27 142.3" style="fill:none;stroke:#aaa;stroke-width:2px"/><path d="M88.86,40.14q.56,7.5-2.5,9.16L85.81,49c1.11-1.66,1.2-4,.27-6.94a6.78,6.78,0,0,0-4.16-5.82l.28-4.17Q88.31,34.32,88.86,40.14Z" transform="translate(-27.64 -24.1)" style="fill:none;stroke:#aaa;stroke-width:2px"/><path d="M95.8,274.07q.83,3.62-.84,5.83a4.79,4.79,0,0,1-3.88,2.22c-2.59-.19-3.8-1.57-3.61-4.16q.27-8.61,7.77-14.43a27.45,27.45,0,0,0-3.33,5A16,16,0,0,0,90,274.91c0,2,.83,3,2.5,3,.73,0,1.43-.51,2.08-1.53a5.58,5.58,0,0,0,.69-3.74Z" transform="translate(-27.64 -24.1)" style="fill:none;stroke:#aaa;stroke-width:2px"/><polygon points="76.48 140.64 70.93 146.47 64.27 140.92 69.82 134.81 76.48 140.64" style="fill:none;stroke:#aaa;stroke-width:2px"/><path d="M135.76,99.25q1.67,9.72-2.22,21.37h-1.11A117.73,117.73,0,0,0,131,99l-8.6-55.22a25.15,25.15,0,0,0-1.39-5.27,10.47,10.47,0,0,1-.83-3.33l3.6-8.61,8.88,18.6v3.6L128,44.58c-.38,0-.47.74-.28,2.22Z" transform="translate(-27.64 -24.1)" style="fill:none;stroke:#aaa;stroke-width:2px"/><path d="M207.07,190.82l-3.88,8.05q2.77,2.77,2.5,4.72-3.06,2.78-5.55,2.5c-1.11,0-2.78-1.21-5-3.61q-1.11-2.22-1.11-7.22h-.83q-.28.28-5,7.22-3.6,5.82-8.6,5.83a5.57,5.57,0,0,1-4.72-2.22,7.83,7.83,0,0,1-1.38-5.55,14.69,14.69,0,0,1,.27-3.61l-.83-.83q-.27.27-11.1,8.6-8.06,6.11-15.26,6.1-9.44-.56-11.1-13.59l-5.83-44.4c-.93-7-2.4-11.2-4.44-12.49l-1.66,8.88q.83,5,1.11,6.94L131,198q.56,4.44-8.6,13T113,226.9a39.67,39.67,0,0,0,.28,4.44q-11.94,6.38-14.43,8.6L86.08,251.6q-8.6,7.75-13.59,7.49-8.33-.29-7.77-12.77,0-4.71,4.71-14.15.84-1.95,5.55-10.27l-1.38-.27q-12.22,13-12.77,32.46-.55,13.59,13.6,14.16,5,0,13.87-7.77,6.66-6.66,13.32-13.05,9.43-7.22,13.32-8.88a20,20,0,0,0,7.77,9.58q5.55,3.74,10,4,6.95.27,7.5-10.82a20.29,20.29,0,0,0-2.5-10.55c-1.67-2.77-3.79-4.16-6.38-4.16q-4.73-.28-11.94,2.5a24.29,24.29,0,0,1-1.38-5.27q0-5,7.07-9.3t7.36-4.58q2.76,0,7.07,4.58t7.08,4.86q4.71,0,13.6-6.11c2.95-2.22,6-4.44,9.15-6.66a11.83,11.83,0,0,0,2.5,7.22,8.44,8.44,0,0,0,6.38,3.6q8.32.28,13-10,2.22,6.39,7.21,6.66,4.72.28,8.05-5a21.45,21.45,0,0,0,2.77-9.44Q209.58,193.33,207.07,190.82Zm-76.86,44.4q3.89,0,6.1,8.05-9.15-.28-13.6-6.66A14.4,14.4,0,0,1,130.21,235.22Z" transform="translate(-27.64 -24.1)" style="fill:none;stroke:#aaa;stroke-width:2px"/><path d="M163.23,230.51q-4.72-7.78-9.71-8-8.33-.28-8.88,14.71-.28,8,6.66,8.32l7.21.28a5.51,5.51,0,0,1,5,3.61,21.1,21.1,0,0,1,.83,3.6q-1.67,4.17-13.6,13.32-13.87,10.54-26.64,10.27a18.6,18.6,0,0,1-11.38-4.44,17.16,17.16,0,0,1-6.38-14.43c.56-5.37,1.11-9.43,1.67-12.21h-1.67q-2.78,6.1-3,18a20.7,20.7,0,0,0,5.55,15.4q5.82,6.24,16.37,6.52t27.47-11.93a48,48,0,0,0,11.1-11.66q3.61-5.26,3.89-14.43A30.23,30.23,0,0,0,163.23,230.51ZM148,236.33c1.11-3.51,2.58-5.27,4.44-5.27q1.38,0,4,2.08c1.76,1.39,2.73,2.54,2.91,3.47Z" transform="translate(-27.64 -24.1)" style="fill:none;stroke:#aaa;stroke-width:2px"/><path d="M174.88,51.52l-.27,3.33a3.22,3.22,0,0,1-1.39.28,4.22,4.22,0,0,0-1.94-2.22q-1.67,0-4.17,11.65h-1.38c-.38-3.33-1.3-5.55-2.78-6.66a4,4,0,0,1-3.19-.69,3.48,3.48,0,0,1-1.25-2.92c0-1.66.56-2.49,1.67-2.49q3,0,6.66,8.88,1.93-11.38,5-11.38A6,6,0,0,1,174.88,51.52Z" transform="translate(-27.64 -24.1)" style="fill:none;stroke:#aaa;stroke-width:2px"/><path d="M184.32,150.59Q171,150,156,175.56a14.34,14.34,0,0,1-3.6-6.38,49.07,49.07,0,0,1-1.39-5q-5.28,4.73-10.55,9.72-7.22,5.82-12.76,5.55-9.43-.28-11.93-23.31l-4.72-44.68q-1.66-13.87-4.44-15l-1.39,8.88q.27,7.77.56,9.72l5.27,44.4a21.89,21.89,0,0,1-4.72,16.65,17.44,17.44,0,0,1-15,7.21l-1.11-.28-2.5,8.88q24.69,6.1,24.7,7.5-.28,2.76-18.32,10.82-15.54,6.93-26.08,6.66-12.22-.56-18-9.16a23.44,23.44,0,0,1-4.16-15.54,164.82,164.82,0,0,1,5.82-20L49.73,172a62,62,0,0,0-7.21,27.75Q41.68,224.12,65.83,225q14.7.54,31.35-9.44,10-4.44,13.6-7.21a21.75,21.75,0,0,0,4.44-11.66,10.45,10.45,0,0,0-.55-5,94.68,94.68,0,0,0-10.83-4.44q7.77-6.39,8-12.77,7.77,13.32,15.54,13.6,12.49.55,19.43-14.71,3.6,8,6.1,10-3.06,9.71-3.61,10.82H151l4.44-9.15a37.16,37.16,0,0,0,11.38,2.49q12.48.56,21.36-5.27,10-6.39,10.27-18Q199,151.15,184.32,150.59Zm3.33,23.86a49,49,0,0,1-19.7,3.61q-6.39-.28-8-1.11a33.47,33.47,0,0,1,8.88-11.38q6.93-6.39,13-6.1,11.1.27,15.26,9.15Q195.42,171.13,187.65,174.45Z" transform="translate(-27.64 -24.1)" style="fill:none;stroke:#aaa;stroke-width:2px"/><path d="M202.36,222.46q2.22,7.48-.84,8,1.11-.28-3.6-.56.83,3.33-3.06,4.44-5.55-.28-4.16-.55c-1.29.36-2.87,2.22-4.72,5.55q-3.33,5.82-11.1,10.54l-1.11.28q1.39-.28,10.55-13.32,3.88-6.39,6.38-6.66a15.63,15.63,0,0,0,4.72.55c.18-1.29,1.11-3.24,2.77-5.82q.56,3,1.95,2.22a3.66,3.66,0,0,0,.83-1.39,9.57,9.57,0,0,1,.28-2.78A.78.78,0,0,0,202.36,222.46Z" transform="translate(-27.64 -24.1)" style="fill:none;stroke:#aaa;stroke-width:2px"/><path d="M195.42,74q1.11,6.38-5.55,10.26A21.18,21.18,0,0,1,178.49,87H176q5-1.67,15.54-8.6l-9.71-.28c.37,0-.93.55-3.88,1.66-.19-.92.32-2.17,1.52-3.74s2.36-2.36,3.47-2.36Z" transform="translate(-27.64 -24.1)" style="fill:none;stroke:#aaa;stroke-width:2px"/><path d="M210.68,160.3a14.18,14.18,0,0,1-3.05,8.6v-2.77a17.64,17.64,0,0,0,1.11-5,10.23,10.23,0,0,0-3.05-6.94,35.75,35.75,0,0,1-3.89-4.44c0-.37.74-1.75,2.22-4.16Q211,150.87,210.68,160.3Z" transform="translate(-27.64 -24.1)" style="fill:none;stroke:#aaa;stroke-width:2px"/></svg>